<svg width="152" height="25" viewBox="0 0 152 25" fill="none" xmlns="http://www.w3.org/2000/svg">
<g clip-path="url(#clip0_0_5)">
<path fill-rule="evenodd" clip-rule="evenodd" d="M0.0981884 2.93518C-0.260604 2.00497 0.408055 1 1.38658 1H7.46159C8.0324 1 8.53797 1.34883 8.74999 1.88869L13.5855 14.2805C13.716 14.6127 13.716 14.9865 13.5855 15.327L10.544 23.1092C10.0792 24.2969 8.43197 24.2969 7.96717 23.1092L0.0981884 2.93518ZM11.8336 2.89365C11.5074 1.97174 12.1761 1 13.1383 1H18.4305C19.0176 1 19.5395 1.37375 19.7352 1.93022L24.1304 14.322C24.2364 14.6293 24.2364 14.9698 24.1304 15.2855L21.4884 22.7355C21.048 23.9813 19.3193 23.9813 18.879 22.7355L11.8336 2.89365ZM23.7147 1C22.7362 1 22.0675 2.00497 22.4263 2.93518L30.2953 23.1092C30.7601 24.2969 32.4073 24.2969 32.8721 23.1092L35.9137 15.327C36.0441 14.9865 36.0441 14.6127 35.9137 14.2805L31.0781 1.88869C30.8661 1.34883 30.3605 1 29.7897 1H23.7147Z" fill="white"/>
</g>
<path d="M45.3274 4.72727H49.3097L53.5156 14.9886H53.6946L57.9006 4.72727H61.8828V20H58.7507V10.0593H58.6239L54.6715 19.9254H52.5387L48.5863 10.022H48.4595V20H45.3274V4.72727ZM64.0636 20V8.54545H67.2404V20H64.0636ZM65.6595 7.06889C65.1872 7.06889 64.782 6.91229 64.4439 6.59908C64.1108 6.28089 63.9443 5.90057 63.9443 5.4581C63.9443 5.0206 64.1108 4.64524 64.4439 4.33203C64.782 4.01385 65.1872 3.85476 65.6595 3.85476C66.1318 3.85476 66.5345 4.01385 66.8676 4.33203C67.2056 4.64524 67.3747 5.0206 67.3747 5.4581C67.3747 5.90057 67.2056 6.28089 66.8676 6.59908C66.5345 6.91229 66.1318 7.06889 65.6595 7.06889ZM72.5421 13.3778V20H69.3653V8.54545H72.393V10.5664H72.5272C72.7807 9.90021 73.2058 9.37322 73.8024 8.98544C74.399 8.59268 75.1224 8.39631 75.9725 8.39631C76.768 8.39631 77.4615 8.57031 78.0531 8.91832C78.6447 9.26633 79.1046 9.76349 79.4327 10.4098C79.7609 11.0511 79.9249 11.8168 79.9249 12.7067V20H76.7481V13.2734C76.753 12.5724 76.5741 12.0256 76.2111 11.6328C75.8482 11.2351 75.3486 11.0362 74.7122 11.0362C74.2846 11.0362 73.9068 11.1282 73.5787 11.3121C73.2555 11.4961 73.002 11.7646 72.818 12.1175C72.639 12.4656 72.5471 12.8857 72.5421 13.3778ZM88.1014 8.54545V10.9318H81.2033V8.54545H88.1014ZM82.7694 5.80114H85.9462V16.4801C85.9462 16.7734 85.991 17.0021 86.0805 17.1662C86.17 17.3253 86.2942 17.4371 86.4533 17.5018C86.6174 17.5664 86.8063 17.5987 87.0201 17.5987C87.1692 17.5987 87.3184 17.5863 87.4675 17.5614C87.6167 17.5316 87.731 17.5092 87.8106 17.4943L88.3102 19.8583C88.1511 19.908 87.9274 19.9652 87.6391 20.0298C87.3507 20.0994 87.0002 20.1417 86.5876 20.1566C85.8219 20.1864 85.1508 20.0845 84.5741 19.8509C84.0023 19.6172 83.5574 19.2543 83.2392 18.7621C82.921 18.2699 82.7644 17.6484 82.7694 16.8977V5.80114ZM94.8032 20.2237C93.6299 20.2237 92.6207 19.9751 91.7755 19.478C90.9353 18.9759 90.289 18.2798 89.8366 17.3899C89.3892 16.5 89.1654 15.4759 89.1654 14.3175C89.1654 13.1442 89.3916 12.1151 89.8441 11.2301C90.3014 10.3402 90.9502 9.64666 91.7904 9.1495C92.6306 8.64737 93.6299 8.39631 94.7883 8.39631C95.7876 8.39631 96.6626 8.57777 97.4133 8.9407C98.164 9.30362 98.7581 9.81321 99.1956 10.4695C99.6331 11.1257 99.8742 11.8963 99.919 12.7812H96.9211C96.8366 12.2095 96.6129 11.7496 96.25 11.4016C95.892 11.0487 95.4222 10.8722 94.8405 10.8722C94.3483 10.8722 93.9183 11.0064 93.5504 11.2749C93.1875 11.5384 92.9041 11.9237 92.7002 12.4308C92.4964 12.9379 92.3945 13.5518 92.3945 14.2727C92.3945 15.0036 92.4939 15.625 92.6928 16.1371C92.8966 16.6491 93.1825 17.0394 93.5504 17.3079C93.9183 17.5763 94.3483 17.7106 94.8405 17.7106C95.2034 17.7106 95.5291 17.636 95.8174 17.4869C96.1107 17.3377 96.3519 17.1214 96.5408 16.8381C96.7347 16.5497 96.8615 16.2042 96.9211 15.8015H99.919C99.8693 16.6765 99.6306 17.4471 99.2031 18.1133C98.7805 18.7745 98.1963 19.2915 97.4506 19.6644C96.7049 20.0373 95.8224 20.2237 94.8032 20.2237ZM104.799 20.2163C104.069 20.2163 103.417 20.0895 102.845 19.8359C102.274 19.5774 101.821 19.1971 101.488 18.695C101.16 18.1879 100.996 17.5565 100.996 16.8008C100.996 16.1644 101.113 15.63 101.347 15.1974C101.58 14.7649 101.898 14.4169 102.301 14.1534C102.704 13.8899 103.161 13.6911 103.673 13.5568C104.19 13.4226 104.732 13.3281 105.299 13.2734C105.965 13.2038 106.502 13.1392 106.91 13.0795C107.317 13.0149 107.613 12.9205 107.797 12.7962C107.981 12.6719 108.073 12.4879 108.073 12.2443V12.1996C108.073 11.7273 107.924 11.3619 107.626 11.1033C107.332 10.8448 106.915 10.7156 106.373 10.7156C105.801 10.7156 105.346 10.8423 105.008 11.0959C104.67 11.3445 104.446 11.6577 104.337 12.0355L101.399 11.7969C101.548 11.1009 101.841 10.4993 102.279 9.99219C102.716 9.48011 103.281 9.08736 103.972 8.81392C104.668 8.53551 105.473 8.39631 106.388 8.39631C107.024 8.39631 107.633 8.47088 108.215 8.62003C108.801 8.76918 109.321 9.00035 109.773 9.31356C110.231 9.62678 110.591 10.0295 110.855 10.5217C111.118 11.0089 111.25 11.593 111.25 12.2741V20H108.237V18.4116H108.148C107.964 18.7695 107.718 19.0852 107.409 19.3587C107.101 19.6271 106.731 19.8384 106.298 19.9925C105.866 20.1417 105.366 20.2163 104.799 20.2163ZM105.709 18.0238C106.176 18.0238 106.589 17.9318 106.947 17.7479C107.305 17.5589 107.586 17.3054 107.79 16.9872C107.994 16.669 108.095 16.3086 108.095 15.9059V14.6903C107.996 14.755 107.859 14.8146 107.685 14.8693C107.516 14.919 107.325 14.9663 107.111 15.011C106.897 15.0508 106.684 15.0881 106.47 15.1229C106.256 15.1527 106.062 15.18 105.888 15.2049C105.515 15.2596 105.19 15.3466 104.911 15.4659C104.633 15.5852 104.417 15.7468 104.262 15.9506C104.108 16.1495 104.031 16.3981 104.031 16.6964C104.031 17.1289 104.188 17.4595 104.501 17.6882C104.819 17.9119 105.222 18.0238 105.709 18.0238ZM122.825 11.8118L119.917 11.9908C119.867 11.7422 119.76 11.5185 119.596 11.3196C119.432 11.1158 119.216 10.9542 118.947 10.8349C118.684 10.7106 118.368 10.6484 118 10.6484C117.508 10.6484 117.093 10.7528 116.755 10.9616C116.417 11.1655 116.248 11.4389 116.248 11.782C116.248 12.0554 116.357 12.2866 116.576 12.4755C116.795 12.6644 117.17 12.8161 117.702 12.9304L119.775 13.348C120.889 13.5767 121.719 13.9446 122.266 14.4517C122.813 14.9588 123.086 15.625 123.086 16.4503C123.086 17.201 122.865 17.8597 122.422 18.4265C121.985 18.9933 121.383 19.4357 120.618 19.7539C119.857 20.0671 118.98 20.2237 117.985 20.2237C116.469 20.2237 115.261 19.908 114.361 19.2766C113.466 18.6403 112.942 17.7752 112.788 16.6815L115.912 16.5174C116.007 16.9798 116.235 17.3327 116.598 17.5763C116.961 17.815 117.426 17.9343 117.993 17.9343C118.55 17.9343 118.997 17.8274 119.335 17.6136C119.678 17.3949 119.852 17.114 119.857 16.771C119.852 16.4826 119.73 16.2464 119.492 16.0625C119.253 15.8736 118.885 15.7294 118.388 15.63L116.404 15.2347C115.286 15.011 114.453 14.6232 113.906 14.0714C113.364 13.5195 113.093 12.8161 113.093 11.9609C113.093 11.2251 113.292 10.5913 113.69 10.0593C114.093 9.52734 114.657 9.11719 115.383 8.82883C116.114 8.54048 116.969 8.39631 117.948 8.39631C119.395 8.39631 120.533 8.70206 121.364 9.31356C122.199 9.92507 122.686 10.7578 122.825 11.8118ZM130.759 8.54545V10.9318H123.861V8.54545H130.759ZM125.427 5.80114H128.604V16.4801C128.604 16.7734 128.649 17.0021 128.738 17.1662C128.828 17.3253 128.952 17.4371 129.111 17.5018C129.275 17.5664 129.464 17.5987 129.678 17.5987C129.827 17.5987 129.976 17.5863 130.125 17.5614C130.275 17.5316 130.389 17.5092 130.468 17.4943L130.968 19.8583C130.809 19.908 130.585 19.9652 130.297 20.0298C130.009 20.0994 129.658 20.1417 129.245 20.1566C128.48 20.1864 127.809 20.0845 127.232 19.8509C126.66 19.6172 126.215 19.2543 125.897 18.7621C125.579 18.2699 125.422 17.6484 125.427 16.8977V5.80114ZM137.506 20.2237C136.328 20.2237 135.313 19.9851 134.463 19.5078C133.618 19.0256 132.967 18.3445 132.509 17.4645C132.052 16.5795 131.823 15.533 131.823 14.3249C131.823 13.1467 132.052 12.1126 132.509 11.2227C132.967 10.3327 133.611 9.6392 134.441 9.14204C135.276 8.64489 136.256 8.39631 137.379 8.39631C138.135 8.39631 138.838 8.51811 139.49 8.76172C140.146 9.00035 140.718 9.3608 141.205 9.84304C141.697 10.3253 142.08 10.9318 142.353 11.6626C142.627 12.3885 142.763 13.2386 142.763 14.2131V15.0856H133.091V13.1168H139.773C139.773 12.6594 139.673 12.2543 139.475 11.9013C139.276 11.5483 139 11.2724 138.647 11.0735C138.299 10.8697 137.894 10.7678 137.431 10.7678C136.949 10.7678 136.521 10.8796 136.149 11.1033C135.781 11.3221 135.492 11.6179 135.284 11.9908C135.075 12.3587 134.968 12.7688 134.963 13.2212V15.093C134.963 15.6598 135.067 16.1495 135.276 16.5621C135.49 16.9748 135.791 17.293 136.178 17.5167C136.566 17.7404 137.026 17.8523 137.558 17.8523C137.911 17.8523 138.234 17.8026 138.528 17.7031C138.821 17.6037 139.072 17.4545 139.281 17.2557C139.49 17.0568 139.649 16.8132 139.758 16.5249L142.696 16.7188C142.547 17.4247 142.241 18.0412 141.779 18.5682C141.322 19.0902 140.73 19.4979 140.004 19.7912C139.283 20.0795 138.45 20.2237 137.506 20.2237ZM144.416 20V8.54545H147.496V10.544H147.616C147.824 9.8331 148.175 9.29616 148.667 8.93324C149.159 8.56534 149.726 8.38139 150.367 8.38139C150.527 8.38139 150.698 8.39133 150.882 8.41122C151.066 8.43111 151.228 8.45845 151.367 8.49325V11.3121C151.218 11.2674 151.011 11.2276 150.748 11.1928C150.484 11.158 150.243 11.1406 150.024 11.1406C149.557 11.1406 149.139 11.2425 148.772 11.4464C148.409 11.6452 148.12 11.9237 147.907 12.2816C147.698 12.6396 147.593 13.0522 147.593 13.5195V20H144.416Z" fill="white"/>
<defs>
<clipPath id="clip0_0_5">
<rect width="36" height="23" fill="white" transform="translate(0 1)"/>
</clipPath>
</defs>
</svg>
