<svg width="102" height="25" viewBox="0 0 102 25" fill="none" xmlns="http://www.w3.org/2000/svg">
    <g clip-path="url(#clip0_4815_2044)">
        <path fill-rule="evenodd" clip-rule="evenodd"
            d="M0.0981884 2.93518C-0.260604 2.00497 0.408055 1 1.38658 1H7.46159C8.0324 1 8.53797 1.34883 8.74999 1.88869L13.5855 14.2805C13.716 14.6127 13.716 14.9865 13.5855 15.327L10.544 23.1092C10.0792 24.2969 8.43197 24.2969 7.96717 23.1092L0.0981884 2.93518ZM11.8336 2.89365C11.5074 1.97174 12.1761 1 13.1383 1H18.4305C19.0176 1 19.5395 1.37375 19.7352 1.93022L24.1304 14.322C24.2364 14.6293 24.2364 14.9698 24.1304 15.2855L21.4884 22.7355C21.048 23.9813 19.3193 23.9813 18.879 22.7355L11.8336 2.89365ZM23.7147 1C22.7362 1 22.0675 2.00497 22.4263 2.93518L30.2953 23.1092C30.7601 24.2969 32.4073 24.2969 32.8721 23.1092L35.9137 15.327C36.0441 14.9865 36.0441 14.6127 35.9137 14.2805L31.0781 1.88869C30.8661 1.34883 30.3605 1 29.7897 1H23.7147Z"
            fill="white" />
    </g>
    <path
        d="M58.8029 10.0742H55.5366C55.4769 9.65163 55.3551 9.27628 55.1712 8.94815C54.9872 8.61506 54.7511 8.33168 54.4627 8.09801C54.1744 7.86435 53.8413 7.68537 53.4634 7.56108C53.0906 7.43679 52.6854 7.37465 52.2479 7.37465C51.4574 7.37465 50.7688 7.57102 50.1822 7.96378C49.5955 8.35156 49.1406 8.91832 48.8175 9.66406C48.4943 10.4048 48.3327 11.3047 48.3327 12.3636C48.3327 13.4524 48.4943 14.3672 48.8175 15.108C49.1456 15.8487 49.603 16.408 50.1896 16.7859C50.7763 17.1637 51.4549 17.3526 52.2255 17.3526C52.658 17.3526 53.0582 17.2955 53.4261 17.1811C53.799 17.0668 54.1296 16.9002 54.418 16.6815C54.7063 16.4577 54.945 16.1868 55.1339 15.8686C55.3278 15.5504 55.462 15.1875 55.5366 14.7798L58.8029 14.7947C58.7184 15.4957 58.5071 16.1719 58.169 16.8232C57.8359 17.4695 57.386 18.0487 56.8192 18.5607C56.2575 19.0678 55.5863 19.4705 54.8058 19.7688C54.0302 20.0621 53.1527 20.2088 52.1733 20.2088C50.8111 20.2088 49.593 19.9006 48.5192 19.2841C47.4503 18.6676 46.6051 17.7752 45.9837 16.6069C45.3672 15.4386 45.0589 14.0241 45.0589 12.3636C45.0589 10.6982 45.3722 9.28125 45.9986 8.11293C46.625 6.9446 47.4751 6.05469 48.549 5.44318C49.6229 4.8267 50.831 4.51847 52.1733 4.51847C53.0582 4.51847 53.8786 4.64276 54.6342 4.89133C55.3949 5.13991 56.0685 5.50284 56.6552 5.98011C57.2418 6.45241 57.7191 7.0316 58.087 7.71768C58.4599 8.40376 58.6985 9.18928 58.8029 10.0742ZM63.9051 20.2163C63.1743 20.2163 62.523 20.0895 61.9513 19.8359C61.3795 19.5774 60.9271 19.1971 60.594 18.695C60.2659 18.1879 60.1018 17.5565 60.1018 16.8008C60.1018 16.1644 60.2187 15.63 60.4523 15.1974C60.686 14.7649 61.0042 14.4169 61.4069 14.1534C61.8096 13.8899 62.267 13.6911 62.779 13.5568C63.2961 13.4226 63.838 13.3281 64.4048 13.2734C65.0709 13.2038 65.6079 13.1392 66.0155 13.0795C66.4232 13.0149 66.719 12.9205 66.903 12.7962C67.0869 12.6719 67.1789 12.4879 67.1789 12.2443V12.1996C67.1789 11.7273 67.0298 11.3619 66.7315 11.1033C66.4381 10.8448 66.0205 10.7156 65.4786 10.7156C64.9069 10.7156 64.452 10.8423 64.1139 11.0959C63.7758 11.3445 63.5521 11.6577 63.4427 12.0355L60.5045 11.7969C60.6537 11.1009 60.947 10.4993 61.3845 9.99219C61.822 9.48011 62.3863 9.08736 63.0773 8.81392C63.7734 8.53551 64.5788 8.39631 65.4935 8.39631C66.1299 8.39631 66.7389 8.47088 67.3206 8.62003C67.9072 8.76918 68.4268 9.00035 68.8792 9.31356C69.3366 9.62678 69.697 10.0295 69.9605 10.5217C70.224 11.0089 70.3557 11.593 70.3557 12.2741V20H67.343V18.4116H67.2535C67.0695 18.7695 66.8234 19.0852 66.5152 19.3587C66.207 19.6271 65.8366 19.8384 65.404 19.9925C64.9715 20.1417 64.4719 20.2163 63.9051 20.2163ZM64.8149 18.0238C65.2822 18.0238 65.6949 17.9318 66.0528 17.7479C66.4108 17.5589 66.6917 17.3054 66.8955 16.9872C67.0994 16.669 67.2013 16.3086 67.2013 15.9059V14.6903C67.1018 14.755 66.9651 14.8146 66.7911 14.8693C66.6221 14.919 66.4307 14.9663 66.2169 15.011C66.0031 15.0508 65.7893 15.0881 65.5756 15.1229C65.3618 15.1527 65.1679 15.18 64.9939 15.2049C64.621 15.2596 64.2954 15.3466 64.017 15.4659C63.7386 15.5852 63.5223 15.7468 63.3682 15.9506C63.2141 16.1495 63.137 16.3981 63.137 16.6964C63.137 17.1289 63.2936 17.4595 63.6068 17.6882C63.925 17.9119 64.3277 18.0238 64.8149 18.0238ZM81.931 11.8118L79.0226 11.9908C78.9729 11.7422 78.866 11.5185 78.7019 11.3196C78.5378 11.1158 78.3216 10.9542 78.0531 10.8349C77.7896 10.7106 77.4739 10.6484 77.106 10.6484C76.6138 10.6484 76.1987 10.7528 75.8606 10.9616C75.5226 11.1655 75.3535 11.4389 75.3535 11.782C75.3535 12.0554 75.4629 12.2866 75.6817 12.4755C75.9004 12.6644 76.2758 12.8161 76.8077 12.9304L78.8809 13.348C79.9945 13.5767 80.8248 13.9446 81.3716 14.4517C81.9185 14.9588 82.192 15.625 82.192 16.4503C82.192 17.201 81.9707 17.8597 81.5283 18.4265C81.0908 18.9933 80.4892 19.4357 79.7236 19.7539C78.9629 20.0671 78.0854 20.2237 77.0911 20.2237C75.5748 20.2237 74.3667 19.908 73.4668 19.2766C72.5719 18.6403 72.0474 17.7752 71.8933 16.6815L75.018 16.5174C75.1124 16.9798 75.3411 17.3327 75.704 17.5763C76.067 17.815 76.5318 17.9343 77.0986 17.9343C77.6554 17.9343 78.1028 17.8274 78.4409 17.6136C78.7839 17.3949 78.9579 17.114 78.9629 16.771C78.9579 16.4826 78.8361 16.2464 78.5975 16.0625C78.3589 15.8736 77.991 15.7294 77.4938 15.63L75.5101 15.2347C74.3915 15.011 73.5588 14.6232 73.0119 14.0714C72.47 13.5195 72.1991 12.8161 72.1991 11.9609C72.1991 11.2251 72.3979 10.5913 72.7957 10.0593C73.1984 9.52734 73.7626 9.11719 74.4885 8.82883C75.2193 8.54048 76.0744 8.39631 77.0538 8.39631C78.5006 8.39631 79.639 8.70206 80.4693 9.31356C81.3045 9.92507 81.7917 10.7578 81.931 11.8118ZM89.8651 8.54545V10.9318H82.967V8.54545H89.8651ZM84.5331 5.80114H87.7099V16.4801C87.7099 16.7734 87.7547 17.0021 87.8441 17.1662C87.9336 17.3253 88.0579 17.4371 88.217 17.5018C88.3811 17.5664 88.57 17.5987 88.7838 17.5987C88.9329 17.5987 89.0821 17.5863 89.2312 17.5614C89.3804 17.5316 89.4947 17.5092 89.5743 17.4943L90.0739 19.8583C89.9148 19.908 89.6911 19.9652 89.4027 20.0298C89.1144 20.0994 88.7639 20.1417 88.3512 20.1566C87.5856 20.1864 86.9145 20.0845 86.3377 19.8509C85.766 19.6172 85.3211 19.2543 85.0029 18.7621C84.6847 18.2699 84.5281 17.6484 84.5331 16.8977V5.80114ZM100.901 11.8118L97.9931 11.9908C97.9434 11.7422 97.8365 11.5185 97.6725 11.3196C97.5084 11.1158 97.2921 10.9542 97.0237 10.8349C96.7602 10.7106 96.4445 10.6484 96.0766 10.6484C95.5844 10.6484 95.1693 10.7528 94.8312 10.9616C94.4931 11.1655 94.3241 11.4389 94.3241 11.782C94.3241 12.0554 94.4335 12.2866 94.6522 12.4755C94.871 12.6644 95.2463 12.8161 95.7783 12.9304L97.8514 13.348C98.9651 13.5767 99.7953 13.9446 100.342 14.4517C100.889 14.9588 101.163 15.625 101.163 16.4503C101.163 17.201 100.941 17.8597 100.499 18.4265C100.061 18.9933 99.4597 19.4357 98.6941 19.7539C97.9335 20.0671 97.056 20.2237 96.0617 20.2237C94.5453 20.2237 93.3372 19.908 92.4374 19.2766C91.5425 18.6403 91.018 17.7752 90.8639 16.6815L93.9885 16.5174C94.083 16.9798 94.3117 17.3327 94.6746 17.5763C95.0375 17.815 95.5024 17.9343 96.0691 17.9343C96.6259 17.9343 97.0734 17.8274 97.4114 17.6136C97.7545 17.3949 97.9285 17.114 97.9335 16.771C97.9285 16.4826 97.8067 16.2464 97.568 16.0625C97.3294 15.8736 96.9615 15.7294 96.4644 15.63L94.4807 15.2347C93.3621 15.011 92.5293 14.6232 91.9825 14.0714C91.4406 13.5195 91.1696 12.8161 91.1696 11.9609C91.1696 11.2251 91.3685 10.5913 91.7662 10.0593C92.1689 9.52734 92.7332 9.11719 93.459 8.82883C94.1899 8.54048 95.045 8.39631 96.0244 8.39631C97.4711 8.39631 98.6096 8.70206 99.4399 9.31356C100.275 9.92507 100.762 10.7578 100.901 11.8118Z"
        fill="white" />
    <defs>
        <clipPath id="clip0_4815_2044">
            <rect width="36" height="23" fill="white" transform="translate(0 1)" />
        </clipPath>
    </defs>
</svg>